# xmcd
# 
# Track frame offsets:
#     225
#     19010
#     43907
#     59187
#     77691
#     87007
#     101778
#     119611
#     129107
#     147756
#     167591
#     169580
#     184228
#     202948
# 
# Disc length: 3107
# 
# Revision: 1
# Processed by: cddbd v1.5.2PL0 Copyright (c) Steve Scherf et al.
# Submitted via: fre:ac v1.0.31
# 
DISCID=bc0c200e
DTITLE=Suede - The Blue Hour
DYEAR=2018
DGENRE=Alternative
TTITLE0=As One
TTITLE1=Wastelands
TTITLE2=Mistress
TTITLE3=Beyond the Outskirts
TTITLE4=Chalk Circles
TTITLE5=Cold Hands
TTITLE6=Life Is Golden
TTITLE7=Roadkill
TTITLE8=Tides
TTITLE9=Don't Be Afraid If Nobody Loves You
TTITLE10=Dead Bird
TTITLE11=All the Wild Places
TTITLE12=The Invisibles
TTITLE13=Flytipping
EXTD=
EXTT0=
EXTT1=
EXTT2=
EXTT3=
EXTT4=
EXTT5=
EXTT6=
EXTT7=
EXTT8=
EXTT9=
EXTT10=
EXTT11=
EXTT12=
EXTT13=
PLAYORDER=
